<?xml version="1.0" encoding="UTF-8"?>
<svg id="Layer_2" data-name="Layer 2" xmlns="http://www.w3.org/2000/svg" viewBox="0 0 181.47 141.6">
  <defs>
    <style>
      .cls-1 {
        fill: #222;
      }

      .cls-2 {
        fill: #d93827;
        fill-rule: evenodd;
      }
    </style>
  </defs>
  <g id="Layer_1-2" data-name="Layer 1">
    <g>
      <path class="cls-1" d="M1.93,131.8l30.36-37.18H11.83c-4.73,0-9.71-3.9-9.46-9.45h41.9c5.41,0,6.68,4.05,4.37,6.98l-30.25,38.33h29.35c6.82,0,10.07,4.84,9.61,9.45H5.64c-5.47,0-7.47-3.54-3.71-8.13M84.07,85.2c12.51-.07,21.96,7.83,24.81,18.79,1.3,4.99-.74,8.07-6.52,7.59h-34.9c0,18.2,17,24.98,32.99,20.63,1.09,2.53.35,9.34-12.25,9.34-40.76,0-44.73-56.09-4.14-56.34M67.92,104.77h29.9c-1.3-15.57-27.6-15.83-29.9,0M120.75,111.54c5.26-2.11,11.33-3.1,15.95-4.38,11.83-3.3,7.63-14-3.8-14-4.55,0-9.73,1.49-15.6,4.49-.75-16.38,22.27-14.07,31.16-7.9,4.16,2.89,6.24,7.31,6.24,13.31,0,6.44-2.78,23.46,1.93,28.46,1.11,1.17,2.81,1.42,4.14,1.05,1.34,7-9.14,10.95-13.34,5.03-5.14-7.25-3.34-23.2-3.34-26.46-2.1,1.23-5.43,2.39-10.05,3.47-5.73,1.32-12.91,2.51-12.91,9.79,0,6.74,6.45,9.43,12.21,9.43,3.01,0,5.93-.72,8.78-1.49,0,10.37-12.56,11.23-22.05,6.6-12-5.85-12.26-22.16.68-27.38M170.85,72.63c-.66-10.07,7.15-10.86,10.62-10.6v69.52c0,6.28-6.23,8.83-10.62,8.37v-67.3Z"/>
      <path class="cls-2" d="M181.26,22.71c.12.81.2,1.63.2,2.46,0,13.9-21.22,25.27-48.15,26.3l2.94-5.09c23.9-1.6,42.71-11.45,45.01-23.67M181.26,42.47c.12.78.2,1.63.2,2.47,0,14.55-23.32,26.36-52.07,26.36-2.52,0-4.94-.1-7.34-.27l2.74-4.77c1.5.06,3.04.11,4.61.11,27.11,0,49.37-10.49,51.87-23.9M181.26,32.57c.12.85.2,1.65.2,2.49,0,14.56-23.32,26.36-52.07,26.36h-1.83l2.86-4.91c26.64-.3,48.36-10.68,50.83-23.94"/>
      <path class="cls-2" d="M146.67,28.31c-23.67-2.46-41.48-13.11-41.48-25.84,0-.84.08-1.65.22-2.46,2.19,12.08,20.55,21.81,43.99,23.62l-2.74,4.69ZM136.27,46.38c-18.33-4.09-31.08-13.37-31.08-24.14,0-.83.08-1.66.22-2.47,1.86,10.2,15.19,18.68,33.4,22.18l-2.55,4.43ZM141.4,37.48c-21.02-3.39-36.21-13.34-36.21-25.13,0-.81.08-1.65.22-2.46,2.05,11.14,17.77,20.28,38.63,23.05l-2.65,4.54Z"/>
    </g>
  </g>
</svg>